<?xml version="1.0" encoding="utf-8"?>
<!-- Generator: Adobe Illustrator 16.0.0, SVG Export Plug-In . SVG Version: 6.00 Build 0)  -->
<!DOCTYPE svg PUBLIC "-//W3C//DTD SVG 1.1//EN" "http://www.w3.org/Graphics/SVG/1.1/DTD/svg11.dtd">
<svg version="1.1" xmlns="http://www.w3.org/2000/svg" xmlns:xlink="http://www.w3.org/1999/xlink" x="0px" y="0px"
	 width="191.194px" height="33.795px" viewBox="0 0 191.194 33.795" enable-background="new 0 0 191.194 33.795"
	 xml:space="preserve">
<g id="bg" display="none">
	<rect display="inline" fill="#946774" width="191.194" height="33.795"/>
</g>
<g id="Ebene_1">
	<g>
		<g>
			<path fill="#FFFFFF" d="M11.87,22.742H8.76c0-0.397,0.076-1.206,0.229-2.425H8.938c-0.618,0.947-1.25,1.643-1.898,2.082
				c-0.646,0.439-1.39,0.66-2.228,0.66c-1.244,0-2.211-0.43-2.901-1.289c-0.689-0.858-1.034-2.066-1.034-3.624
				c0-1.583,0.354-3.062,1.06-4.437c0.707-1.376,1.676-2.434,2.908-3.174c1.23-0.741,2.63-1.111,4.195-1.111
				c0.745,0,1.456,0.076,2.133,0.229l1.32-6.157h3.021L12.34,18.604c-0.102,0.432-0.205,1.097-0.311,1.993
				C11.923,21.493,11.87,22.209,11.87,22.742z M10.702,11.951c-0.593-0.152-1.168-0.229-1.727-0.229
				c-0.974,0-1.828,0.254-2.564,0.762s-1.329,1.271-1.777,2.292c-0.448,1.02-0.673,2.08-0.673,3.18c0,0.881,0.167,1.547,0.502,2
				c0.334,0.452,0.818,0.679,1.453,0.679c0.889,0,1.697-0.478,2.425-1.435s1.273-2.256,1.638-3.897L10.702,11.951z"/>
			<path fill="#FFFFFF" d="M18.738,22.958c-0.931,0-1.64-0.234-2.127-0.705c-0.486-0.469-0.729-1.141-0.729-2.012
				c0-0.439,0.047-0.871,0.14-1.295l1.892-9.204h3.085l-1.727,8.188c-0.178,0.846-0.267,1.393-0.267,1.638
				c0,0.644,0.368,0.965,1.104,0.965c0.432,0,0.816-0.067,1.155-0.203l-0.482,2.336C20.055,22.86,19.373,22.958,18.738,22.958z
				 M22.191,5.337c0,0.508-0.182,0.929-0.546,1.263s-0.809,0.501-1.333,0.501c-0.508,0-0.938-0.152-1.289-0.457
				c-0.351-0.305-0.526-0.707-0.526-1.206c0-0.516,0.187-0.935,0.559-1.257s0.821-0.482,1.346-0.482
				c0.491,0,0.912,0.154,1.263,0.463C22.016,4.472,22.191,4.863,22.191,5.337z"/>
			<path fill="#FFFFFF" d="M32.03,12.51c-0.372-0.22-0.814-0.411-1.327-0.571c-0.512-0.16-1.021-0.241-1.529-0.241
				c-0.711,0-1.242,0.15-1.594,0.45c-0.351,0.301-0.526,0.688-0.526,1.162c0,0.424,0.144,0.774,0.432,1.054s0.702,0.567,1.244,0.863
				c1.101,0.618,1.852,1.206,2.253,1.765c0.402,0.559,0.604,1.215,0.604,1.968c0,0.821-0.214,1.536-0.641,2.146
				c-0.428,0.609-1.052,1.088-1.873,1.435s-1.824,0.521-3.009,0.521c-0.644,0-1.324-0.072-2.044-0.216s-1.27-0.317-1.65-0.521
				l0.508-2.514c0.466,0.279,1.018,0.516,1.656,0.711c0.64,0.195,1.255,0.292,1.848,0.292c0.745,0,1.299-0.14,1.663-0.419
				s0.546-0.664,0.546-1.155c0-0.381-0.125-0.711-0.375-0.99c-0.249-0.279-0.733-0.614-1.453-1.003
				c-0.956-0.516-1.652-1.063-2.088-1.638c-0.437-0.575-0.654-1.253-0.654-2.031c0-0.796,0.205-1.509,0.615-2.14
				c0.411-0.63,1.004-1.123,1.777-1.479c0.775-0.355,1.695-0.533,2.762-0.533c0.635,0,1.255,0.057,1.859,0.172
				c0.605,0.113,1.115,0.256,1.53,0.425L32.03,12.51z"/>
			<path fill="#FFFFFF" d="M43.824,12.814c-0.321-0.271-0.722-0.499-1.199-0.686c-0.479-0.187-1.006-0.279-1.581-0.279
				c-0.804,0-1.538,0.237-2.202,0.711c-0.665,0.474-1.209,1.157-1.632,2.05c-0.423,0.894-0.635,1.83-0.635,2.813
				c0,1.049,0.235,1.848,0.704,2.393c0.471,0.547,1.141,0.819,2.013,0.819c0.524,0,1.081-0.106,1.669-0.317
				c0.589-0.211,1.115-0.47,1.581-0.774l-0.533,2.577c-1.202,0.627-2.396,0.939-3.58,0.939c-1.54,0-2.746-0.472-3.618-1.416
				c-0.872-0.943-1.308-2.248-1.308-3.916c0-1.506,0.326-2.905,0.978-4.195c0.651-1.291,1.56-2.299,2.723-3.021
				c1.164-0.725,2.482-1.086,3.955-1.086c0.618,0,1.231,0.074,1.841,0.223c0.609,0.147,1.083,0.336,1.422,0.564L43.824,12.814z"/>
			<path fill="#FFFFFF" d="M65.19,22.742h-3.123l-1.879-13h3.047l0.838,7.693c0.093,0.745,0.14,1.456,0.14,2.133L64.2,19.937h0.051
				c0.364-0.863,0.753-1.693,1.168-2.488l4.075-7.706h3.39L65.19,22.742z"/>
			<path fill="#FFFFFF" d="M84.246,12.941c0,1.565-0.728,2.719-2.184,3.46c-1.456,0.74-3.665,1.127-6.627,1.161l-0.025,0.14v0.254
				c0,0.881,0.263,1.563,0.787,2.051c0.524,0.486,1.257,0.729,2.196,0.729c0.644,0,1.331-0.116,2.063-0.349
				c0.731-0.233,1.402-0.531,2.012-0.896l-0.508,2.526c-1.278,0.693-2.688,1.041-4.228,1.041c-1.685,0-2.998-0.47-3.942-1.409
				c-0.943-0.939-1.415-2.265-1.415-3.974c0-1.473,0.321-2.85,0.965-4.133c0.644-1.281,1.54-2.289,2.691-3.021
				c1.151-0.731,2.412-1.098,3.783-1.098c1.362,0,2.441,0.322,3.237,0.965S84.246,11.884,84.246,12.941z M81.275,13.018
				c0-0.423-0.154-0.76-0.463-1.009c-0.31-0.25-0.734-0.375-1.276-0.375c-0.897,0-1.71,0.368-2.438,1.104s-1.206,1.642-1.435,2.717
				C79.405,15.455,81.275,14.643,81.275,13.018z"/>
			<path fill="#FFFFFF" d="M94.72,12.7c-0.517-0.271-1.016-0.406-1.498-0.406c-0.88,0-1.683,0.444-2.405,1.333
				c-0.725,0.889-1.242,2.073-1.556,3.555l-1.181,5.561h-3.072l1.803-8.455c0.432-2.107,0.686-3.622,0.762-4.545h3.021
				c-0.085,0.821-0.203,1.735-0.355,2.742h0.051c0.533-0.965,1.094-1.716,1.682-2.253c0.589-0.538,1.276-0.807,2.063-0.807
				c0.321,0,0.749,0.063,1.282,0.19L94.72,12.7z"/>
		</g>
		<g>
			<g>
				<path display="none" fill-rule="evenodd" clip-rule="evenodd" fill="#FFFFFF" d="M49.002,22.889
					c-0.223,0.386-0.397,0.731-0.611,1.049c-0.301,0.446-0.733,0.831-0.928,1.313c-0.885,2.198-1.71,4.423-2.547,6.641
					c-0.368,0.972-0.17,1.535,0.603,1.811c0.76,0.271,1.264-0.043,1.618-1.029c0.808-2.263,1.62-4.521,2.404-6.792
					c0.127-0.363,0.127-0.772,0.168-1.162c0.053-0.483,0.09-0.97,0.135-1.478c5.026,1.203,8.554-1.84,9.407-5.111
					c0.986-3.787-0.906-7.518-4.465-8.872c-3.611-1.374-7.559,0.17-9.295,3.684C43.852,16.252,44.895,20.683,49.002,22.889z"/>
				<path fill-rule="evenodd" clip-rule="evenodd" fill="#FFFFFF" d="M49.002,22.889c-4.107-2.206-5.151-6.637-3.512-9.948
					c1.736-3.514,5.684-5.057,9.295-3.684c3.559,1.354,5.452,5.085,4.465,8.872c-0.854,3.271-4.381,6.314-9.407,5.111
					c-0.045,0.508-0.082,0.994-0.135,1.478c-0.042,0.39-0.042,0.799-0.168,1.162c-0.785,2.271-1.596,4.529-2.404,6.792
					c-0.354,0.986-0.858,1.301-1.618,1.029c-0.772-0.275-0.971-0.839-0.603-1.811c0.837-2.218,1.663-4.442,2.547-6.641
					c0.195-0.481,0.627-0.866,0.928-1.313C48.605,23.62,48.779,23.274,49.002,22.889z M57.476,13.793
					c-1.302-2.949-4.805-4.292-7.748-2.971c-2.889,1.3-4.227,4.803-2.944,7.697c1.289,2.911,4.742,4.261,7.671,2.998
					C57.417,20.241,58.781,16.752,57.476,13.793z"/>
				<path display="none" fill-rule="evenodd" clip-rule="evenodd" fill="#FFFFFF" d="M57.476,13.793
					c1.305,2.959-0.059,6.448-3.021,7.725c-2.929,1.263-6.382-0.087-7.671-2.998c-1.283-2.895,0.056-6.397,2.944-7.697
					C52.671,9.501,56.174,10.844,57.476,13.793z M56.708,13.94c-0.161-0.36-0.647-0.663-0.843-0.573
					c-0.7,0.322-0.104,0.827,0.039,1.234c0.482,1.389,0.524,2.694-0.446,3.929c-0.167,0.212-0.095,0.614-0.135,0.93
					c0.307-0.119,0.709-0.151,0.901-0.37C57.519,17.618,57.409,15.955,56.708,13.94z"/>
			</g>
			<g>
				<path fill-rule="evenodd" clip-rule="evenodd" fill="#FFFFFF" d="M53.524,18.099c0,0.183,0,0.367,0,0.551
					c0.187,0,0.36,0,0.543,0c0-0.19,0-0.373,0-0.551c0.185,0,0.37,0,0.55,0c0-0.383,0-0.745,0-1.118c-0.185,0-0.356,0-0.549,0
					c0-0.195,0-0.375,0-0.556c0.184,0,0.368,0,0.553,0c0-0.189,0-0.363,0-0.538c-0.188,0-0.366,0-0.55,0c0,0.187,0,0.365,0,0.541
					c-0.18,0-0.361,0-0.556,0c0-0.196,0-0.366,0-0.541c-0.194,0-0.372,0-0.551,0c0,0.186,0,0.36,0,0.552c0.187,0,0.362,0,0.54,0
					c0,0.189,0,0.357,0,0.544c-0.151,0-0.296,0.003-0.438-0.002c-0.09-0.003-0.118,0.031-0.115,0.116
					c0.005,0.144,0.002,0.285,0.002,0.45c-0.379,0-0.74,0-1.101,0c0,0.38,0,0.738,0,1.102c0.187,0,0.365,0,0.56,0
					c0-0.188,0-0.363,0-0.55C52.794,18.099,53.159,18.099,53.524,18.099z M49.625,18.643c0.023,0.007,0.037,0.015,0.049,0.015
					c0.509,0.002,1.017,0,1.525,0.004c0.092,0.001,0.095-0.052,0.095-0.12c-0.001-0.48-0.002-0.96,0.001-1.438
					c0.001-0.096-0.033-0.124-0.125-0.122c-0.331,0.004-0.662,0.002-0.993,0.002c-0.181,0-0.362,0-0.553,0
					C49.625,17.542,49.625,18.087,49.625,18.643z M49.631,13.654c-0.007,0.029-0.012,0.048-0.012,0.064
					c-0.001,0.501,0,0.999-0.003,1.498c-0.001,0.094,0.042,0.107,0.122,0.107c0.475-0.002,0.95-0.004,1.425,0.003
					c0.113,0,0.135-0.041,0.133-0.143c-0.005-0.321-0.001-0.643-0.001-0.965c0-0.186,0-0.371,0-0.565
					C50.734,13.654,50.189,13.654,49.631,13.654z M52.971,13.653c-0.008,0.025-0.017,0.044-0.017,0.061
					c-0.001,0.504,0.001,1.006-0.004,1.512c0,0.103,0.06,0.099,0.13,0.099c0.475,0,0.949,0,1.424,0c0.037,0,0.074-0.007,0.114-0.011
					c0-0.558,0-1.106,0-1.66C54.066,13.653,53.525,13.653,52.971,13.653z M50.174,12.535c-0.4,0-0.783-0.012-1.165,0.004
					c-0.281,0.013-0.492,0.253-0.504,0.538c-0.005,0.118-0.001,0.238-0.001,0.359c0,0.252,0,0.504,0,0.764c0.193,0,0.367,0,0.56,0
					c0-0.06,0-0.111,0-0.162c0-0.264,0.006-0.527-0.001-0.791c-0.003-0.117,0.027-0.16,0.15-0.156
					c0.258,0.009,0.518,0.004,0.777,0.002c0.06-0.001,0.12-0.006,0.184-0.009C50.174,12.896,50.174,12.727,50.174,12.535z
					 M54.074,13.095c0.31,0,0.606-0.003,0.903,0c0.231,0,0.205-0.022,0.206,0.208c0.001,0.298,0,0.592,0,0.895
					c0.197,0,0.375,0,0.56,0c0-0.373,0.003-0.732,0-1.092c-0.003-0.334-0.241-0.568-0.575-0.572c-0.293-0.003-0.585,0-0.878,0
					c-0.07,0-0.139,0-0.216,0C54.074,12.725,54.074,12.896,54.074,13.095z M48.52,18.105c-0.006,0.021-0.015,0.033-0.015,0.047
					c0,0.345-0.002,0.69,0,1.035c0.002,0.35,0.238,0.582,0.591,0.585c0.316,0.002,0.633,0,0.949,0c0.042,0,0.083-0.006,0.124-0.009
					c0-0.188,0-0.362,0-0.552c-0.264,0-0.517,0-0.771,0c-0.335,0-0.335,0-0.335-0.34c0-0.253,0-0.505,0-0.767
					C48.869,18.105,48.696,18.105,48.52,18.105z M54.074,19.77c0.402,0,0.791,0.011,1.177-0.005c0.249-0.01,0.466-0.212,0.48-0.462
					c0.021-0.394,0.005-0.793,0.005-1.197c-0.184,0-0.359,0-0.545,0c-0.003,0.058-0.007,0.11-0.007,0.16
					c0,0.265-0.008,0.528,0.002,0.791c0.006,0.134-0.04,0.163-0.163,0.158c-0.215-0.009-0.432-0.003-0.648-0.003
					c-0.098,0.001-0.197,0-0.301,0C54.074,19.407,54.074,19.577,54.074,19.77z M52.393,16.984c0-0.374,0-0.736,0-1.101
					c-0.371,0-0.733,0-1.098,0c0,0.188,0,0.363,0,0.553c0.187,0,0.361,0,0.553,0c0,0.193,0,0.369,0,0.548
					C52.037,16.984,52.208,16.984,52.393,16.984z M52.393,15.314c0-0.375,0-0.736,0-1.103c-0.185,0-0.359,0-0.541,0
					c0,0.371,0,0.732,0,1.103C52.033,15.314,52.209,15.314,52.393,15.314z M49.624,16.422c0.187,0,0.366,0,0.545,0
					c0-0.187,0-0.361,0-0.54c-0.187,0-0.361,0-0.545,0C49.624,16.066,49.624,16.241,49.624,16.422z"/>
				<path fill-rule="evenodd" clip-rule="evenodd" fill="#FFFFFF" d="M54.068,16.425c0,0.181,0,0.36,0,0.556
					c0.192,0,0.364,0,0.549,0c0,0.373,0,0.735,0,1.118c-0.18,0-0.365,0-0.55,0l0.003,0.001c0-0.364,0-0.73,0-1.096
					c-0.198,0-0.367,0-0.551,0c0,0.372,0,0.733,0,1.096l0.004-0.001c-0.365,0-0.729,0-1.112,0c0,0.187,0,0.361,0,0.55
					c-0.194,0-0.373,0-0.56,0c0-0.363,0-0.722,0-1.102c0.361,0,0.722,0,1.101,0c0-0.165,0.003-0.307-0.002-0.45
					c-0.002-0.085,0.025-0.119,0.115-0.116c0.143,0.005,0.287,0.002,0.438,0.002c0-0.187,0-0.354,0-0.544c-0.178,0-0.353,0-0.54,0
					c0-0.191,0-0.366,0-0.552c0.179,0,0.357,0,0.551,0c0,0.175,0,0.345,0,0.541c0.195,0,0.375,0,0.556,0L54.068,16.425z"/>
				<path display="none" fill-rule="evenodd" clip-rule="evenodd" fill="#FFFFFF" d="M49.625,18.643c0-0.556,0-1.101,0-1.66
					c0.191,0,0.372,0,0.553,0c0.331,0,0.662,0.002,0.993-0.002c0.092-0.002,0.126,0.026,0.125,0.122
					c-0.004,0.479-0.003,0.958-0.001,1.438c0,0.068-0.003,0.121-0.095,0.12c-0.508-0.004-1.017-0.002-1.525-0.004
					C49.662,18.657,49.648,18.649,49.625,18.643z M50.714,18.091c0-0.188,0-0.36,0-0.529c-0.184,0-0.354,0-0.523,0
					c0,0.183,0,0.351,0,0.529C50.368,18.091,50.534,18.091,50.714,18.091z"/>
				<path display="none" fill-rule="evenodd" clip-rule="evenodd" fill="#FFFFFF" d="M49.631,13.654c0.558,0,1.103,0,1.664,0
					c0,0.194,0,0.38,0,0.565c0,0.322-0.004,0.644,0.001,0.965c0.001,0.102-0.021,0.143-0.133,0.143
					c-0.475-0.007-0.95-0.005-1.425-0.003c-0.08,0-0.124-0.014-0.122-0.107c0.003-0.499,0.002-0.997,0.003-1.498
					C49.619,13.702,49.624,13.684,49.631,13.654z M50.72,14.22c-0.187,0-0.356,0-0.531,0c0,0.181,0,0.351,0,0.523
					c0.183,0,0.356,0,0.531,0C50.72,14.565,50.72,14.397,50.72,14.22z"/>
				<path display="none" fill-rule="evenodd" clip-rule="evenodd" fill="#FFFFFF" d="M52.971,13.653c0.554,0,1.095,0,1.647,0
					c0,0.554,0,1.103,0,1.66c-0.04,0.004-0.077,0.011-0.114,0.011c-0.475,0-0.949,0-1.424,0c-0.071,0-0.131,0.004-0.13-0.099
					c0.005-0.506,0.002-1.008,0.004-1.512C52.954,13.697,52.963,13.679,52.971,13.653z M54.061,14.22c-0.188,0-0.358,0-0.531,0
					c0,0.182,0,0.352,0,0.523c0.183,0,0.355,0,0.531,0C54.061,14.563,54.061,14.396,54.061,14.22z"/>
				<path fill-rule="evenodd" clip-rule="evenodd" fill="#FFFFFF" d="M50.174,12.535c0,0.191,0,0.361,0,0.549
					c-0.064,0.003-0.125,0.008-0.184,0.009c-0.259,0.002-0.519,0.007-0.777-0.002c-0.123-0.004-0.154,0.039-0.15,0.156
					c0.007,0.264,0.001,0.527,0.001,0.791c0,0.051,0,0.103,0,0.162c-0.192,0-0.366,0-0.56,0c0-0.26,0-0.512,0-0.764
					c0-0.121-0.004-0.241,0.001-0.359c0.012-0.285,0.223-0.525,0.504-0.538C49.391,12.523,49.774,12.535,50.174,12.535z"/>
				<path fill-rule="evenodd" clip-rule="evenodd" fill="#FFFFFF" d="M54.074,13.095c0-0.198,0-0.37,0-0.562
					c0.077,0,0.146,0,0.216,0c0.293,0,0.585-0.003,0.878,0c0.334,0.004,0.572,0.238,0.575,0.572c0.003,0.359,0,0.719,0,1.092
					c-0.186,0-0.363,0-0.56,0c0-0.303,0.001-0.597,0-0.895c-0.001-0.23,0.025-0.208-0.206-0.208
					C54.68,13.092,54.384,13.095,54.074,13.095z"/>
				<path fill-rule="evenodd" clip-rule="evenodd" fill="#FFFFFF" d="M48.52,18.105c0.176,0,0.349,0,0.543,0
					c0,0.262,0,0.514,0,0.767c0,0.34,0,0.34,0.335,0.34c0.254,0,0.507,0,0.771,0c0,0.189,0,0.364,0,0.552
					c-0.042,0.003-0.083,0.009-0.124,0.009c-0.316,0-0.633,0.002-0.949,0c-0.353-0.003-0.589-0.235-0.591-0.585
					c-0.002-0.345,0-0.69,0-1.035C48.505,18.139,48.514,18.126,48.52,18.105z"/>
				<path fill-rule="evenodd" clip-rule="evenodd" fill="#FFFFFF" d="M54.074,19.77c0-0.192,0-0.362,0-0.558
					c0.104,0,0.203,0.001,0.301,0c0.216,0,0.433-0.006,0.648,0.003c0.123,0.005,0.169-0.024,0.163-0.158
					c-0.011-0.263-0.003-0.526-0.002-0.791c0-0.05,0.004-0.103,0.007-0.16c0.187,0,0.361,0,0.545,0c0,0.404,0.016,0.804-0.005,1.197
					c-0.014,0.25-0.231,0.452-0.48,0.462C54.864,19.78,54.476,19.77,54.074,19.77z"/>
				<path fill-rule="evenodd" clip-rule="evenodd" fill="#FFFFFF" d="M52.393,16.984c-0.185,0-0.355,0-0.544,0
					c0-0.179,0-0.354,0-0.548c-0.192,0-0.366,0-0.553,0c0-0.189,0-0.365,0-0.553c0.365,0,0.727,0,1.098,0
					C52.393,16.248,52.393,16.61,52.393,16.984z"/>
				<path fill-rule="evenodd" clip-rule="evenodd" fill="#FFFFFF" d="M52.393,15.314c-0.184,0-0.359,0-0.541,0
					c0-0.37,0-0.731,0-1.103c0.181,0,0.356,0,0.541,0C52.393,14.578,52.393,14.939,52.393,15.314z"/>
				<path fill-rule="evenodd" clip-rule="evenodd" fill="#FFFFFF" d="M49.624,16.422c0-0.181,0-0.355,0-0.54
					c0.184,0,0.359,0,0.545,0c0,0.179,0,0.354,0,0.54C49.99,16.422,49.811,16.422,49.624,16.422z"/>
				<path fill-rule="evenodd" clip-rule="evenodd" fill="#FFFFFF" d="M54.071,16.428c0-0.176,0-0.354,0-0.541
					c0.184,0,0.362,0,0.55,0c0,0.175,0,0.349,0,0.538c-0.185,0-0.369,0-0.553,0L54.071,16.428z"/>
				<path fill-rule="evenodd" clip-rule="evenodd" fill="#FFFFFF" d="M54.067,18.099c0,0.178,0,0.36,0,0.551
					c-0.183,0-0.357,0-0.543,0c0-0.184,0-0.368,0-0.551L53.52,18.1c0.184,0,0.367,0,0.551,0L54.067,18.099z"/>
				<path display="none" fill-rule="evenodd" clip-rule="evenodd" d="M54.071,18.1c-0.184,0-0.367,0-0.551,0
					c0-0.362,0-0.724,0-1.096c0.184,0,0.353,0,0.551,0C54.071,17.369,54.071,17.735,54.071,18.1z"/>
				<path display="none" fill-rule="evenodd" clip-rule="evenodd" d="M50.714,18.091c-0.18,0-0.346,0-0.523,0
					c0-0.179,0-0.347,0-0.529c0.169,0,0.339,0,0.523,0C50.714,17.73,50.714,17.902,50.714,18.091z"/>
				<path display="none" fill-rule="evenodd" clip-rule="evenodd" d="M50.72,14.22c0,0.178,0,0.346,0,0.523
					c-0.175,0-0.348,0-0.531,0c0-0.173,0-0.343,0-0.523C50.364,14.22,50.534,14.22,50.72,14.22z"/>
				<path display="none" fill-rule="evenodd" clip-rule="evenodd" d="M54.061,14.22c0,0.177,0,0.343,0,0.523
					c-0.176,0-0.348,0-0.531,0c0-0.172,0-0.342,0-0.523C53.702,14.22,53.872,14.22,54.061,14.22z"/>
			</g>
		</g>
	</g>
	<g>
		<g>
			<path fill="#FFFFFF" d="M109.64,22.103h-2.945v-7.109c0-2.572-0.859-3.859-2.577-3.859c-0.863,0-1.591,0.373-2.184,1.117
				s-0.889,1.697-0.889,2.856v6.995h-2.958V2.856h2.958v8.404h0.051c0.981-1.643,2.387-2.463,4.215-2.463
				c2.886,0,4.329,1.765,4.329,5.294V22.103z"/>
			<path fill="#FFFFFF" d="M114.705,6.373c-0.482,0-0.895-0.157-1.238-0.47c-0.342-0.313-0.514-0.711-0.514-1.193
				s0.172-0.884,0.514-1.206c0.344-0.322,0.756-0.482,1.238-0.482c0.499,0,0.923,0.161,1.27,0.482s0.521,0.724,0.521,1.206
				c0,0.457-0.174,0.849-0.521,1.174S115.204,6.373,114.705,6.373z M116.165,22.103h-2.945v-13h2.945V22.103z"/>
			<path fill="#FFFFFF" d="M119.199,21.696v-2.729c1.101,0.838,2.314,1.257,3.644,1.257c1.777,0,2.666-0.525,2.666-1.574
				c0-0.297-0.076-0.548-0.229-0.756c-0.152-0.207-0.357-0.391-0.616-0.552c-0.258-0.161-0.563-0.305-0.914-0.432
				c-0.351-0.127-0.742-0.271-1.174-0.432c-0.533-0.212-1.014-0.437-1.441-0.673c-0.427-0.236-0.782-0.506-1.066-0.807
				c-0.283-0.3-0.497-0.641-0.641-1.021s-0.216-0.825-0.216-1.333c0-0.626,0.148-1.179,0.444-1.657
				c0.296-0.478,0.694-0.88,1.193-1.205c0.499-0.326,1.066-0.572,1.701-0.736c0.635-0.166,1.291-0.248,1.968-0.248
				c1.202,0,2.276,0.182,3.225,0.546v2.577c-0.914-0.627-1.964-0.939-3.148-0.939c-0.372,0-0.709,0.038-1.009,0.114
				c-0.301,0.076-0.557,0.183-0.769,0.317s-0.377,0.299-0.495,0.488c-0.118,0.191-0.178,0.4-0.178,0.629
				c0,0.279,0.06,0.516,0.178,0.711s0.294,0.366,0.527,0.514c0.232,0.148,0.512,0.284,0.838,0.406c0.325,0.123,0.7,0.256,1.123,0.4
				c0.559,0.229,1.061,0.461,1.504,0.698c0.445,0.237,0.823,0.506,1.137,0.806c0.313,0.301,0.555,0.648,0.724,1.041
				c0.169,0.395,0.254,0.861,0.254,1.403c0,0.66-0.152,1.235-0.457,1.727s-0.711,0.897-1.219,1.219s-1.094,0.561-1.759,0.717
				c-0.664,0.157-1.364,0.235-2.101,0.235C121.472,22.407,120.24,22.17,119.199,21.696z"/>
			<path fill="#FFFFFF" d="M138.077,21.963c-0.575,0.288-1.333,0.432-2.272,0.432c-2.522,0-3.783-1.21-3.783-3.631v-7.351h-2.171
				V9.103h2.171V6.094l2.945-0.838v3.847h3.11v2.311h-3.11v6.5c0,0.77,0.14,1.32,0.419,1.65s0.745,0.495,1.396,0.495
				c0.499,0,0.931-0.144,1.295-0.432V21.963z"/>
			<path fill="#FFFFFF" d="M146.228,22.407c-2.006,0-3.607-0.607-4.806-1.822c-1.197-1.214-1.796-2.824-1.796-4.83
				c0-2.184,0.624-3.889,1.872-5.116c1.249-1.228,2.931-1.841,5.047-1.841c2.031,0,3.614,0.597,4.748,1.79s1.701,2.849,1.701,4.964
				c0,2.074-0.611,3.734-1.834,4.982C149.937,21.783,148.293,22.407,146.228,22.407z M146.367,11.146
				c-1.151,0-2.061,0.401-2.729,1.206s-1.003,1.912-1.003,3.326c0,1.363,0.339,2.436,1.016,3.219
				c0.677,0.782,1.583,1.174,2.717,1.174c1.159,0,2.051-0.385,2.672-1.155c0.623-0.771,0.934-1.866,0.934-3.288
				c0-1.43-0.311-2.535-0.934-3.313C148.418,11.536,147.526,11.146,146.367,11.146z"/>
			<path fill="#FFFFFF" d="M163.531,11.908c-0.355-0.279-0.867-0.419-1.536-0.419c-0.872,0-1.6,0.394-2.184,1.181
				s-0.876,1.858-0.876,3.212v6.221h-2.945v-13h2.945v2.679h0.051c0.288-0.914,0.73-1.627,1.326-2.14
				c0.598-0.512,1.264-0.768,2-0.768c0.533,0,0.939,0.08,1.219,0.241V11.908z"/>
			<path fill="#FFFFFF" d="M177.915,9.103l-5.865,15.082c-1.219,2.691-2.929,4.037-5.129,4.037c-0.618,0-1.134-0.055-1.549-0.165
				v-2.45c0.466,0.152,0.889,0.229,1.27,0.229c1.101,0,1.921-0.542,2.463-1.625l0.876-2.133l-5.167-12.975h3.263l3.098,9.445
				c0.034,0.119,0.11,0.432,0.229,0.939h0.063c0.042-0.195,0.118-0.5,0.229-0.914l3.25-9.471H177.915z"/>
		</g>
		<g>
			<path fill-rule="evenodd" clip-rule="evenodd" fill="#FFFFFF" d="M180.959,8.607c-0.229,0.66-0.455,1.322-0.684,1.986
				c-0.031,0.092-0.061,0.186-0.094,0.279c-0.096,0.275-0.201,0.545-0.563,0.529c-0.338-0.014-0.428-0.273-0.508-0.537
				c-0.133-0.439-0.268-0.879-0.439-1.443c-0.195,0.621-0.588,0.656-1.035,0.639c-0.576-0.025-1.152-0.006-1.756-0.006
				c0-0.328,0-0.613,0-0.947c0.529,0,1.035-0.014,1.537,0.008c0.262,0.01,0.383-0.082,0.455-0.324
				c0.096-0.324,0.193-0.654,0.352-0.951c0.092-0.17,0.316-0.4,0.459-0.383c0.178,0.02,0.404,0.23,0.484,0.414
				c0.193,0.441,0.313,0.918,0.502,1.506c0.258-0.725,0.477-1.328,0.689-1.934c0.145-0.412,0.248-0.844,0.439-1.234
				c0.084-0.176,0.352-0.381,0.514-0.365c0.158,0.018,0.381,0.283,0.416,0.471c0.121,0.68,0.176,1.369,0.258,2.057
				c0.025,0.207,0.051,0.414,0.156,0.623c0.195-1.178,0.387-2.357,0.582-3.533c0.111-0.67,0.23-1.336,0.334-2.004
				c0.045-0.291,0.193-0.496,0.484-0.496c0.314,0,0.449,0.225,0.49,0.529c0.322,2.447,0.654,4.891,0.984,7.338
				c0.021,0.15,0.047,0.299,0.154,0.453c0.146-0.887,0.299-1.773,0.439-2.662c0.178-1.129,0.346-2.258,0.518-3.389
				c0.043-0.287,0.15-0.545,0.469-0.568c0.342-0.025,0.475,0.227,0.559,0.525c0.393,1.428,0.797,2.85,1.199,4.273
				c0.041,0.146,0.098,0.287,0.197,0.482c0.189-1.066,0.934-1.063,1.723-0.998c0.291,0.023,0.588,0.002,0.918,0.002
				c0,0.316,0,0.6,0,0.936c-0.432,0-0.852-0.021-1.27,0.01c-0.143,0.012-0.332,0.125-0.406,0.248
				c-0.236,0.398-0.4,0.842-0.648,1.234c-0.109,0.17-0.354,0.354-0.535,0.352c-0.145,0-0.361-0.25-0.418-0.43
				c-0.359-1.156-0.684-2.324-1.021-3.488c-0.025-0.088-0.064-0.178-0.135-0.369c-0.248,1.561-0.48,3.01-0.709,4.465
				c-0.154,0.975-0.299,1.951-0.449,2.928c-0.047,0.313-0.15,0.613-0.525,0.602c-0.363-0.012-0.447-0.297-0.49-0.625
				c-0.33-2.531-0.676-5.059-1.016-7.588c-0.008-0.068-0.029-0.133-0.123-0.207c-0.096,0.551-0.191,1.102-0.283,1.652
				c-0.223,1.338-0.445,2.67-0.658,4.008c-0.047,0.297-0.16,0.527-0.49,0.529s-0.453-0.227-0.484-0.527
				c-0.137-1.191-0.279-2.383-0.418-3.574c-0.02-0.16-0.045-0.322-0.068-0.482C181.016,8.615,180.988,8.611,180.959,8.607z"/>
		</g>
	</g>
</g>
<g id="Ebene_2" display="none">
	<rect x="49.816" y="12.38" display="inline" fill="#010202" width="0.52" height="0.26"/>
	<rect x="50.596" y="12.38" display="inline" fill="#010202" width="1.301" height="0.26"/>
	<rect x="52.417" y="12.38" display="inline" fill="#010202" width="0.261" height="0.26"/>
	<rect x="52.938" y="12.38" display="inline" fill="#010202" width="0.26" height="0.26"/>
	<rect x="53.458" y="12.38" display="inline" fill="#010202" width="1.821" height="0.26"/>
	<rect x="47.734" y="12.64" display="inline" fill="#010202" width="0.26" height="1.302"/>
	<rect x="49.295" y="12.64" display="inline" fill="#010202" width="0.26" height="1.302"/>
	<rect x="49.816" y="12.64" display="inline" fill="#010202" width="0.26" height="0.521"/>
	<rect x="51.637" y="12.64" display="inline" fill="#010202" width="0.521" height="0.521"/>
	<rect x="52.678" y="12.64" display="inline" fill="#010202" width="0.26" height="0.261"/>
	<rect x="53.458" y="12.64" display="inline" fill="#010202" width="0.26" height="1.302"/>
	<rect x="55.02" y="12.64" display="inline" fill="#010202" width="0.26" height="1.302"/>
	<rect x="48.254" y="12.9" display="inline" fill="#010202" width="0.78" height="0.78"/>
	<rect x="50.596" y="12.9" display="inline" fill="#010202" width="0.521" height="0.26"/>
	<rect x="53.979" y="12.9" display="inline" fill="#010202" width="0.78" height="0.78"/>
	<rect x="49.816" y="13.16" display="inline" fill="#010202" width="0.52" height="0.261"/>
	<rect x="50.596" y="13.16" display="inline" fill="#010202" width="0.26" height="0.261"/>
	<rect x="51.117" y="13.16" display="inline" fill="#010202" width="0.521" height="0.261"/>
	<rect x="51.897" y="13.16" display="inline" fill="#010202" width="0.261" height="0.261"/>
	<rect x="52.417" y="13.16" display="inline" fill="#010202" width="0.78" height="0.261"/>
	<rect x="49.816" y="13.421" display="inline" fill="#010202" width="0.78" height="0.26"/>
	<rect x="50.856" y="13.421" display="inline" fill="#010202" width="0.261" height="0.26"/>
	<rect x="51.897" y="13.421" display="inline" fill="#010202" width="1.041" height="0.26"/>
	<rect x="50.076" y="13.681" display="inline" fill="#010202" width="0.26" height="0.261"/>
	<rect x="50.596" y="13.681" display="inline" fill="#010202" width="0.26" height="0.261"/>
	<rect x="51.637" y="13.681" display="inline" fill="#010202" width="0.26" height="0.261"/>
	<rect x="52.417" y="13.681" display="inline" fill="#010202" width="0.78" height="0.261"/>
	<rect x="47.734" y="13.941" display="inline" fill="#010202" width="1.821" height="0.26"/>
	<rect x="49.816" y="13.941" display="inline" fill="#010202" width="0.26" height="0.521"/>
	<rect x="50.335" y="13.941" display="inline" fill="#010202" width="0.261" height="0.26"/>
	<rect x="50.856" y="13.941" display="inline" fill="#010202" width="0.261" height="0.26"/>
	<rect x="51.376" y="13.941" display="inline" fill="#010202" width="0.261" height="0.26"/>
	<rect x="51.897" y="13.941" display="inline" fill="#010202" width="0.261" height="0.26"/>
	<rect x="52.417" y="13.941" display="inline" fill="#010202" width="0.261" height="0.26"/>
	<rect x="52.938" y="13.941" display="inline" fill="#010202" width="0.26" height="0.26"/>
	<rect x="53.458" y="13.941" display="inline" fill="#010202" width="1.821" height="0.26"/>
	<rect x="50.335" y="14.201" display="inline" fill="#010202" width="1.041" height="0.261"/>
	<rect x="52.678" y="14.201" display="inline" fill="#010202" width="0.26" height="0.521"/>
	<rect x="47.994" y="14.462" display="inline" fill="#010202" width="0.521" height="0.26"/>
	<rect x="48.775" y="14.462" display="inline" fill="#010202" width="0.26" height="0.52"/>
	<rect x="49.295" y="14.462" display="inline" fill="#010202" width="0.521" height="0.26"/>
	<rect x="50.076" y="14.462" display="inline" fill="#010202" width="0.26" height="0.26"/>
	<rect x="51.637" y="14.462" display="inline" fill="#010202" width="0.26" height="0.26"/>
	<rect x="53.458" y="14.462" display="inline" fill="#010202" width="0.26" height="0.52"/>
	<rect x="53.979" y="14.462" display="inline" fill="#010202" width="1.301" height="0.26"/>
	<rect x="48.254" y="14.722" display="inline" fill="#010202" width="0.26" height="0.26"/>
	<rect x="49.555" y="14.722" display="inline" fill="#010202" width="0.261" height="0.26"/>
	<rect x="50.076" y="14.722" display="inline" fill="#010202" width="0.78" height="0.26"/>
	<rect x="51.376" y="14.722" display="inline" fill="#010202" width="1.041" height="0.26"/>
	<rect x="52.938" y="14.722" display="inline" fill="#010202" width="0.26" height="0.26"/>
	<rect x="54.239" y="14.722" display="inline" fill="#010202" width="0.521" height="0.26"/>
	<rect x="55.02" y="14.722" display="inline" fill="#010202" width="0.26" height="0.26"/>
	<rect x="47.994" y="14.981" display="inline" fill="#010202" width="0.261" height="0.261"/>
	<rect x="48.514" y="14.981" display="inline" fill="#010202" width="0.521" height="0.261"/>
	<rect x="49.295" y="14.981" display="inline" fill="#010202" width="0.26" height="0.261"/>
	<rect x="49.816" y="14.981" display="inline" fill="#010202" width="0.78" height="0.261"/>
	<rect x="50.856" y="14.981" display="inline" fill="#010202" width="0.781" height="0.261"/>
	<rect x="52.158" y="14.981" display="inline" fill="#010202" width="0.521" height="0.261"/>
	<rect x="53.718" y="14.981" display="inline" fill="#010202" width="0.261" height="0.261"/>
	<rect x="54.5" y="14.981" display="inline" fill="#010202" width="0.78" height="0.261"/>
	<rect x="48.254" y="15.242" display="inline" fill="#010202" width="0.26" height="0.26"/>
	<rect x="49.035" y="15.242" display="inline" fill="#010202" width="0.261" height="0.26"/>
	<rect x="49.816" y="15.242" display="inline" fill="#010202" width="0.26" height="0.26"/>
	<rect x="50.596" y="15.242" display="inline" fill="#010202" width="0.26" height="0.26"/>
	<rect x="51.376" y="15.242" display="inline" fill="#010202" width="0.521" height="0.26"/>
	<rect x="52.158" y="15.242" display="inline" fill="#010202" width="0.78" height="0.26"/>
	<rect x="53.198" y="15.242" display="inline" fill="#010202" width="0.521" height="0.26"/>
	<rect x="53.979" y="15.242" display="inline" fill="#010202" width="0.26" height="0.26"/>
	<rect x="54.759" y="15.242" display="inline" fill="#010202" width="0.261" height="0.26"/>
	<rect x="47.994" y="15.502" display="inline" fill="#010202" width="0.261" height="0.261"/>
	<rect x="49.035" y="15.502" display="inline" fill="#010202" width="0.781" height="0.261"/>
	<rect x="50.076" y="15.502" display="inline" fill="#010202" width="0.26" height="0.261"/>
	<rect x="50.596" y="15.502" display="inline" fill="#010202" width="1.301" height="0.261"/>
	<rect x="52.158" y="15.502" display="inline" fill="#010202" width="0.26" height="0.521"/>
	<rect x="52.938" y="15.502" display="inline" fill="#010202" width="0.26" height="0.261"/>
	<rect x="53.458" y="15.502" display="inline" fill="#010202" width="0.521" height="0.261"/>
	<rect x="47.734" y="15.763" display="inline" fill="#010202" width="0.26" height="0.26"/>
	<rect x="48.775" y="15.763" display="inline" fill="#010202" width="0.26" height="0.26"/>
	<rect x="49.555" y="15.763" display="inline" fill="#010202" width="0.78" height="0.26"/>
	<rect x="50.596" y="15.763" display="inline" fill="#010202" width="0.26" height="0.521"/>
	<rect x="51.117" y="15.763" display="inline" fill="#010202" width="0.26" height="0.26"/>
	<rect x="52.938" y="15.763" display="inline" fill="#010202" width="1.041" height="0.26"/>
	<rect x="54.759" y="15.763" display="inline" fill="#010202" width="0.521" height="0.26"/>
	<rect x="47.734" y="16.022" display="inline" fill="#010202" width="0.521" height="0.521"/>
	<rect x="48.514" y="16.022" display="inline" fill="#010202" width="0.261" height="0.521"/>
	<rect x="49.295" y="16.022" display="inline" fill="#010202" width="0.78" height="0.261"/>
	<rect x="51.117" y="16.022" display="inline" fill="#010202" width="0.78" height="0.261"/>
	<rect x="52.417" y="16.022" display="inline" fill="#010202" width="0.261" height="0.261"/>
	<rect x="52.938" y="16.022" display="inline" fill="#010202" width="0.26" height="0.261"/>
	<rect x="53.458" y="16.022" display="inline" fill="#010202" width="0.521" height="0.261"/>
	<rect x="54.5" y="16.022" display="inline" fill="#010202" width="0.78" height="0.261"/>
	<rect x="49.035" y="16.283" display="inline" fill="#010202" width="0.261" height="0.26"/>
	<rect x="50.335" y="16.283" display="inline" fill="#010202" width="0.521" height="0.26"/>
	<rect x="51.117" y="16.283" display="inline" fill="#010202" width="0.26" height="0.26"/>
	<rect x="51.637" y="16.283" display="inline" fill="#010202" width="2.342" height="0.26"/>
	<rect x="49.035" y="16.543" display="inline" fill="#010202" width="0.521" height="0.261"/>
	<rect x="49.816" y="16.543" display="inline" fill="#010202" width="1.04" height="0.261"/>
	<rect x="51.117" y="16.543" display="inline" fill="#010202" width="0.521" height="0.261"/>
	<rect x="51.897" y="16.543" display="inline" fill="#010202" width="0.261" height="0.261"/>
	<rect x="52.417" y="16.543" display="inline" fill="#010202" width="0.261" height="0.521"/>
	<rect x="52.938" y="16.543" display="inline" fill="#010202" width="0.78" height="0.261"/>
	<rect x="54.239" y="16.543" display="inline" fill="#010202" width="0.261" height="0.261"/>
	<rect x="54.759" y="16.543" display="inline" fill="#010202" width="0.261" height="0.261"/>
	<rect x="49.035" y="16.804" display="inline" fill="#010202" width="0.261" height="0.26"/>
	<rect x="50.335" y="16.804" display="inline" fill="#010202" width="0.261" height="0.26"/>
	<rect x="50.856" y="16.804" display="inline" fill="#010202" width="0.521" height="0.26"/>
	<rect x="51.637" y="16.804" display="inline" fill="#010202" width="0.521" height="0.26"/>
	<rect x="52.938" y="16.804" display="inline" fill="#010202" width="0.26" height="0.26"/>
	<rect x="53.458" y="16.804" display="inline" fill="#010202" width="0.26" height="0.26"/>
	<rect x="54.239" y="16.804" display="inline" fill="#010202" width="1.041" height="0.26"/>
	<rect x="47.734" y="17.063" display="inline" fill="#010202" width="0.26" height="0.261"/>
	<rect x="48.254" y="17.063" display="inline" fill="#010202" width="0.26" height="0.261"/>
	<rect x="48.775" y="17.063" display="inline" fill="#010202" width="1.041" height="0.261"/>
	<rect x="50.076" y="17.063" display="inline" fill="#010202" width="0.521" height="0.261"/>
	<rect x="51.117" y="17.063" display="inline" fill="#010202" width="0.26" height="0.261"/>
	<rect x="51.637" y="17.063" display="inline" fill="#010202" width="0.78" height="0.261"/>
	<rect x="52.938" y="17.063" display="inline" fill="#010202" width="0.521" height="0.261"/>
	<rect x="53.979" y="17.063" display="inline" fill="#010202" width="1.301" height="0.261"/>
	<rect x="47.994" y="17.324" display="inline" fill="#010202" width="0.261" height="0.26"/>
	<rect x="48.514" y="17.324" display="inline" fill="#010202" width="0.261" height="0.26"/>
	<rect x="49.035" y="17.324" display="inline" fill="#010202" width="0.261" height="0.26"/>
	<rect x="49.555" y="17.324" display="inline" fill="#010202" width="0.261" height="0.26"/>
	<rect x="50.076" y="17.324" display="inline" fill="#010202" width="0.26" height="0.26"/>
	<rect x="50.596" y="17.324" display="inline" fill="#010202" width="0.26" height="0.52"/>
	<rect x="51.117" y="17.324" display="inline" fill="#010202" width="0.521" height="0.26"/>
	<rect x="51.897" y="17.324" display="inline" fill="#010202" width="0.781" height="0.26"/>
	<rect x="52.938" y="17.324" display="inline" fill="#010202" width="0.26" height="0.26"/>
	<rect x="53.458" y="17.324" display="inline" fill="#010202" width="0.26" height="0.26"/>
	<rect x="55.02" y="17.324" display="inline" fill="#010202" width="0.26" height="0.26"/>
	<rect x="47.734" y="17.584" display="inline" fill="#010202" width="0.26" height="0.26"/>
	<rect x="48.254" y="17.584" display="inline" fill="#010202" width="0.78" height="0.26"/>
	<rect x="49.295" y="17.584" display="inline" fill="#010202" width="0.78" height="0.26"/>
	<rect x="51.637" y="17.584" display="inline" fill="#010202" width="0.26" height="0.26"/>
	<rect x="52.158" y="17.584" display="inline" fill="#010202" width="0.26" height="0.26"/>
	<rect x="52.678" y="17.584" display="inline" fill="#010202" width="1.821" height="0.26"/>
	<rect x="49.816" y="17.844" display="inline" fill="#010202" width="1.04" height="0.261"/>
	<rect x="51.117" y="17.844" display="inline" fill="#010202" width="0.26" height="0.781"/>
	<rect x="51.897" y="17.844" display="inline" fill="#010202" width="0.261" height="0.261"/>
	<rect x="52.417" y="17.844" display="inline" fill="#010202" width="0.78" height="0.261"/>
	<rect x="53.979" y="17.844" display="inline" fill="#010202" width="0.26" height="0.781"/>
	<rect x="54.759" y="17.844" display="inline" fill="#010202" width="0.521" height="0.261"/>
	<rect x="47.734" y="18.104" display="inline" fill="#010202" width="1.821" height="0.26"/>
	<rect x="49.816" y="18.104" display="inline" fill="#010202" width="0.52" height="0.26"/>
	<rect x="50.596" y="18.104" display="inline" fill="#010202" width="0.26" height="0.26"/>
	<rect x="52.158" y="18.104" display="inline" fill="#010202" width="0.26" height="0.26"/>
	<rect x="52.678" y="18.104" display="inline" fill="#010202" width="0.52" height="0.26"/>
	<rect x="53.458" y="18.104" display="inline" fill="#010202" width="0.26" height="0.26"/>
	<rect x="54.5" y="18.104" display="inline" fill="#010202" width="0.26" height="0.26"/>
	<rect x="55.02" y="18.104" display="inline" fill="#010202" width="0.26" height="0.26"/>
	<rect x="47.734" y="18.364" display="inline" fill="#010202" width="0.26" height="1.302"/>
	<rect x="49.295" y="18.364" display="inline" fill="#010202" width="0.26" height="1.302"/>
	<rect x="50.076" y="18.364" display="inline" fill="#010202" width="0.78" height="0.261"/>
	<rect x="51.637" y="18.364" display="inline" fill="#010202" width="0.521" height="0.261"/>
	<rect x="52.938" y="18.364" display="inline" fill="#010202" width="0.26" height="0.261"/>
	<rect x="54.759" y="18.364" display="inline" fill="#010202" width="0.521" height="0.261"/>
	<rect x="48.254" y="18.625" display="inline" fill="#010202" width="0.78" height="0.78"/>
	<rect x="49.816" y="18.625" display="inline" fill="#010202" width="0.78" height="0.26"/>
	<rect x="52.938" y="18.625" display="inline" fill="#010202" width="1.562" height="0.26"/>
	<rect x="55.02" y="18.625" display="inline" fill="#010202" width="0.26" height="0.26"/>
	<rect x="50.076" y="18.885" display="inline" fill="#010202" width="0.26" height="0.261"/>
	<rect x="50.596" y="18.885" display="inline" fill="#010202" width="0.521" height="0.261"/>
	<rect x="51.637" y="18.885" display="inline" fill="#010202" width="0.26" height="0.261"/>
	<rect x="52.158" y="18.885" display="inline" fill="#010202" width="0.26" height="0.781"/>
	<rect x="52.938" y="18.885" display="inline" fill="#010202" width="0.521" height="0.261"/>
	<rect x="53.979" y="18.885" display="inline" fill="#010202" width="0.521" height="0.261"/>
	<rect x="49.816" y="19.146" display="inline" fill="#010202" width="0.52" height="0.26"/>
	<rect x="50.596" y="19.146" display="inline" fill="#010202" width="0.78" height="0.26"/>
	<rect x="52.678" y="19.146" display="inline" fill="#010202" width="0.26" height="0.26"/>
	<rect x="53.718" y="19.146" display="inline" fill="#010202" width="0.781" height="0.26"/>
	<rect x="55.02" y="19.146" display="inline" fill="#010202" width="0.26" height="0.26"/>
	<rect x="49.816" y="19.405" display="inline" fill="#010202" width="0.26" height="0.261"/>
	<rect x="50.335" y="19.405" display="inline" fill="#010202" width="0.261" height="0.261"/>
	<rect x="51.117" y="19.405" display="inline" fill="#010202" width="0.78" height="0.261"/>
	<rect x="52.678" y="19.405" display="inline" fill="#010202" width="1.301" height="0.261"/>
	<rect x="54.759" y="19.405" display="inline" fill="#010202" width="0.261" height="0.261"/>
	<rect x="47.734" y="19.666" display="inline" fill="#010202" width="1.821" height="0.26"/>
	<rect x="50.076" y="19.666" display="inline" fill="#010202" width="1.041" height="0.26"/>
	<rect x="51.897" y="19.666" display="inline" fill="#010202" width="0.521" height="0.26"/>
	<rect x="52.938" y="19.666" display="inline" fill="#010202" width="0.78" height="0.26"/>
	<rect x="53.979" y="19.666" display="inline" fill="#010202" width="0.521" height="0.26"/>
	<rect x="54.759" y="19.666" display="inline" fill="#010202" width="0.521" height="0.26"/>
	<rect x="47.734" y="12.38" display="inline" fill="#010202" width="1.821" height="0.26"/>
</g>
</svg>
